<svg xmlns="http://www.w3.org/2000/svg" viewBox="0 0 640 360" role="img" aria-labelledby="title desc">
  <title id="title">Finance collection management</title>
  <desc id="desc">A wallet, rupee coin and upward collection chart</desc>
  <defs>
    <linearGradient id="bg" x1="0" y1="0" x2="1" y2="1">
      <stop offset="0" stop-color="#10b981"/>
      <stop offset="1" stop-color="#0f766e"/>
    </linearGradient>
    <linearGradient id="card" x1="0" y1="0" x2="1" y2="1">
      <stop offset="0" stop-color="#ffffff" stop-opacity=".95"/>
      <stop offset="1" stop-color="#d1fae5" stop-opacity=".9"/>
    </linearGradient>
  </defs>
  <rect width="640" height="360" rx="32" fill="url(#bg)"/>
  <circle cx="90" cy="70" r="95" fill="#ffffff" opacity=".08"/>
  <circle cx="570" cy="320" r="130" fill="#ffffff" opacity=".07"/>
  <path d="M90 270h460" stroke="#a7f3d0" stroke-width="4" stroke-linecap="round" opacity=".55"/>
  <rect x="106" y="92" width="300" height="186" rx="28" fill="url(#card)"/>
  <path d="M106 130h300" stroke="#059669" stroke-width="5" opacity=".28"/>
  <rect x="276" y="154" width="158" height="72" rx="20" fill="#064e3b"/>
  <circle cx="400" cy="190" r="11" fill="#6ee7b7"/>
  <circle cx="486" cy="98" r="65" fill="#fef3c7"/>
  <circle cx="486" cy="98" r="53" fill="#fbbf24"/>
  <text x="486" y="121" text-anchor="middle" font-family="Arial, sans-serif" font-size="68" font-weight="700" fill="#78350f">₹</text>
  <path d="M452 273v-42m45 42v-78m45 78V160" stroke="#ecfdf5" stroke-width="18" stroke-linecap="round"/>
  <path d="m436 207 46-38 38 13 48-62" fill="none" stroke="#a7f3d0" stroke-width="9" stroke-linecap="round" stroke-linejoin="round"/>
  <path d="m548 121 20-1-3 20" fill="none" stroke="#a7f3d0" stroke-width="9" stroke-linecap="round" stroke-linejoin="round"/>
</svg>
